# xmcd CD database file
#
# Track frame offsets:
#	150
#	13213
#	27390
#	40988
#	54360
#	67115
#	82093
#	96058
#	108835
#	131918
#	154698
#	179453
#	211233
#	233675
#	254743
#	283610
#	304005
#
# Disc length: 4328 seconds
#
# Revision: 0
# Processed by: cddbd v1.5.1PL0 Copyright (c) Steve Scherf et al.
# Submitted via: CDex 1.51
#
DISCID=f110e611
DTITLE=Various Artist - Soul Source SUPREME "DAWN"
DYEAR=2004
DGENRE=Jazz
TTITLE0=The Martian Hop - The Newcomers
TTITLE1=Curtain Call - Cal Tjader
TTITLE2=Am I The Same Girl - Barbara Acklin
TTITLE3=Wack Wack - Young-Holt Unlimited
TTITLE4=Do Me - Jean Knight
TTITLE5=Oh, Pretty Woman - Al Green
TTITLE6=Sugarcane - The MG's
TTITLE7=So I Can Love You - The Emotions
TTITLE8=Summer Love - The Blackbyrds
TTITLE9=Hello Like Before - Emestine Anderson
TTITLE10=Moanin' - Art Blakey
TTITLE11=Pawky - Dorothy Ashby
TTITLE12=Moon Dreams - Flora Purim
TTITLE13=Incense of Essence - Charles Earland
TTITLE14=People Make The World Go Round - The Stylistics
TTITLE15=Vibes od Truth - The 3 Pieces
TTITLE16=Never Gonna Stop - Linda Clifford
EXTD=YEAR: 2004
EXTT0=
EXTT1=
EXTT2=
EXTT3=
EXTT4=
EXTT5=
EXTT6=
EXTT7=
EXTT8=
EXTT9=
EXTT10=
EXTT11=
EXTT12=
EXTT13=
EXTT14=
EXTT15=
EXTT16=
PLAYORDER=
